<?xml version="1.0" standalone="no"?>
<!DOCTYPE svg PUBLIC "-//W3C//DTD SVG 20010904//EN"
 "http://www.w3.org/TR/2001/REC-SVG-20010904/DTD/svg10.dtd">
<svg version="1.0" xmlns="http://www.w3.org/2000/svg"
 width="280.000000pt" height="280.000000pt" viewBox="0 0 280.000000 280.000000"
 preserveAspectRatio="xMidYMid meet">
<metadata>
Created by potrace 1.16, written by Peter Selinger 2001-2019
</metadata>
<g transform="translate(0.000000,280.000000) scale(0.100000,-0.100000)"
fill="#000000" stroke="none">
<path d="M905 2756 c-492 -95 -709 -677 -402 -1081 117 -154 288 -242 488
-252 208 -11 364 50 509 196 139 141 194 275 194 476 0 132 -18 206 -77 320
-80 154 -245 286 -413 329 -88 23 -217 28 -299 12z"/>
<path d="M2137 2520 c-120 -30 -211 -124 -243 -250 -40 -158 37 -326 184 -397
48 -23 70 -27 142 -27 71 -1 94 4 141 26 72 33 134 94 168 167 22 47 26 70 26
146 0 76 -4 99 -26 145 -37 79 -81 125 -155 161 -70 35 -166 46 -237 29z"/>
<path d="M1981 1665 c-234 -53 -434 -238 -507 -470 -56 -177 -41 -363 43 -535
86 -177 259 -317 453 -366 86 -22 244 -22 335 0 197 48 368 186 459 371 l36
71 0 241 0 241 -42 83 c-32 66 -60 102 -127 170 -143 143 -270 198 -471 205
-77 2 -136 -1 -179 -11z"/>
<path d="M240 1531 c-89 -27 -172 -97 -212 -179 -34 -69 -38 -205 -8 -285 30
-79 108 -157 187 -187 77 -29 205 -25 274 8 63 31 127 96 158 162 22 47 26 68
26 150 0 83 -3 102 -28 151 -58 118 -174 190 -305 188 -37 0 -78 -4 -92 -8z"/>
<path d="M870 879 c-75 -15 -163 -64 -219 -124 -156 -165 -156 -425 0 -590
240 -254 666 -118 720 230 46 293 -211 541 -501 484z"/>
</g>
</svg>
